<svg xmlns="http://www.w3.org/2000/svg" version="1.1" xmlns:xlink="http://www.w3.org/1999/xlink" xmlns:svgjs="http://svgjs.dev/svgjs" width="1440" height="560" preserveAspectRatio="none" viewBox="0 0 1440 560"><g mask="url(&quot;#SvgjsMask2146&quot;)" fill="none"><rect width="1440" height="560" x="0" y="0" fill="url(&quot;#SvgjsLinearGradient2147&quot;)"></rect><path d="M738.34 506.44 a130.58 130.58 0 1 0 261.16 0 a130.58 130.58 0 1 0 -261.16 0z" fill="rgba(28, 83, 142, 0.4)" class="triangle-float2"></path><path d="M1145.335,341.394C1183.753,342.411,1214.3,311.88,1232.115,277.828C1248.562,246.391,1247.009,209.958,1230.538,178.534C1212.635,144.377,1183.898,112.565,1145.335,112.263C1106.398,111.958,1074.956,142.231,1057.788,177.18C1042.569,208.163,1049.924,242.976,1066.163,273.436C1083.7,306.329,1108.072,340.408,1145.335,341.394" fill="rgba(28, 83, 142, 0.4)" class="triangle-float2"></path><path d="M1128.11 515.73 a168.5 168.5 0 1 0 337 0 a168.5 168.5 0 1 0 -337 0z" fill="rgba(28, 83, 142, 0.4)" class="triangle-float2"></path><path d="M1102.748,409.489C1130.918,409.868,1156.085,392.163,1169.386,367.328C1181.983,343.807,1179.216,315.504,1165.267,292.759C1151.967,271.072,1128.164,259.788,1102.748,258.667C1074.873,257.438,1044.154,262.809,1029.888,286.788C1015.397,311.145,1024.67,341.208,1039.141,365.577C1053.24,389.321,1075.136,409.118,1102.748,409.489" fill="rgba(28, 83, 142, 0.4)" class="triangle-float1"></path><path d="M743.195,548.277C795.067,546.574,835.842,509.934,862.508,465.408C890.111,419.318,908.427,363.156,882.112,316.319C855.399,268.774,797.71,251.58,743.195,253.049C691.48,254.443,643.478,279.227,616.669,323.473C588.821,369.433,583.132,426.887,609.489,473.717C636.315,521.38,688.53,550.072,743.195,548.277" fill="rgba(28, 83, 142, 0.4)" class="triangle-float2"></path><path d="M1003.538572806302 342.5308786561478L1023.8365360311841 430.4510166618318 1111.7566740368682 410.15305343694956 1091.4587108119858 322.23291543126567z" fill="rgba(28, 83, 142, 0.4)" class="triangle-float3"></path><path d="M903.33 246.2 a99.54 99.54 0 1 0 199.08 0 a99.54 99.54 0 1 0 -199.08 0z" fill="rgba(28, 83, 142, 0.4)" class="triangle-float3"></path><path d="M1017.796,372.224C1069.799,368.906,1103.828,323.881,1129.657,278.624C1155.182,233.901,1178.221,180.879,1152.443,136.302C1126.685,91.758,1069.246,84.45,1017.796,85.181C967.99,85.889,917.249,98.593,889.619,140.038C858.89,186.132,851.364,246.173,878.137,294.672C905.719,344.636,960.84,375.858,1017.796,372.224" fill="rgba(28, 83, 142, 0.4)" class="triangle-float1"></path><path d="M549.0391609725076 216.89033930904492L480.9604036581423 289.8958684703343 553.9659328194316 357.9746257846996 622.044690133797 284.9690966234102z" fill="rgba(28, 83, 142, 0.4)" class="triangle-float1"></path><path d="M450.648,479.892C499.799,480.353,555.593,481.274,582.328,440.028C610.66,396.319,599.203,338.287,570.691,294.695C544.787,255.091,497.926,236.647,450.648,238.702C406.972,240.601,371.006,267.595,347.417,304.402C321.32,345.123,298.659,395.907,323.182,437.595C347.51,478.951,402.669,479.442,450.648,479.892" fill="rgba(28, 83, 142, 0.4)" class="triangle-float2"></path><path d="M853.3018524571287 534.8433778850681L979.2060023564808 626.3180972393092 1070.6807217107219 500.41394733995713 944.7765718113698 408.93922798571606z" fill="rgba(28, 83, 142, 0.4)" class="triangle-float3"></path><path d="M153.04 20.31 a133.84 133.84 0 1 0 267.68 0 a133.84 133.84 0 1 0 -267.68 0z" fill="rgba(28, 83, 142, 0.4)" class="triangle-float2"></path><path d="M950.41,361.687C1003.738,363.205,1057.314,340.972,1083.874,294.704C1110.337,248.606,1102.458,191.193,1074.084,146.246C1047.617,104.32,999.983,84.189,950.41,83.285C898.949,82.346,844.895,97.301,818.667,141.587C792.037,186.552,802.651,242.622,829.491,287.462C855.525,330.956,899.741,360.244,950.41,361.687" fill="rgba(28, 83, 142, 0.4)" class="triangle-float2"></path><path d="M1010.034,287.57C1048.014,284.807,1076.73,258.222,1097.052,226.018C1119.321,190.729,1140.658,148.519,1121.015,111.703C1100.627,73.492,1053.335,63.816,1010.034,62.925C964.648,61.991,915.079,68.577,890.845,106.964C865.341,147.363,871.613,200.627,897.928,240.502C921.854,276.757,966.71,290.721,1010.034,287.57" fill="rgba(28, 83, 142, 0.4)" class="triangle-float2"></path></g><defs><mask id="SvgjsMask2146"><rect width="1440" height="560" fill="#ffffff"></rect></mask><linearGradient x1="84.72%" y1="139.29%" x2="15.28%" y2="-39.29%" gradientUnits="userSpaceOnUse" id="SvgjsLinearGradient2147"><stop stop-color="rgba(14, 42, 71, 1)" offset="0"></stop><stop stop-color="rgba(0, 71, 163, 1)" offset="0.95"></stop></linearGradient><style>
                @keyframes float1 {
                    0%{transform: translate(0, 0)}
                    50%{transform: translate(-10px, 0)}
                    100%{transform: translate(0, 0)}
                }

                .triangle-float1 {
                    animation: float1 5s infinite;
                }

                @keyframes float2 {
                    0%{transform: translate(0, 0)}
                    50%{transform: translate(-5px, -5px)}
                    100%{transform: translate(0, 0)}
                }

                .triangle-float2 {
                    animation: float2 4s infinite;
                }

                @keyframes float3 {
                    0%{transform: translate(0, 0)}
                    50%{transform: translate(0, -10px)}
                    100%{transform: translate(0, 0)}
                }

                .triangle-float3 {
                    animation: float3 6s infinite;
                }
            </style></defs></svg>